HIERARCHY
ROOT hip
{
	OFFSET 0.000000 0.000000 0.000000 
	CHANNELS 6 Xposition Yposition Zposition Xrotation Zrotation Yrotation
	JOINT abdomen
	{
		OFFSET 0.000000 3.402643 0.000000 
		CHANNELS 3 Xrotation Zrotation Yrotation
		JOINT chest
		{
			OFFSET 0.000000 8.438565 -0.680529 
			CHANNELS 3 Xrotation Zrotation Yrotation
			JOINT neck
			{
				OFFSET 0.000000 10.207942 -0.272212 
				CHANNELS 3 Xrotation Zrotation Yrotation
				JOINT head
				{
					OFFSET 0.000000 3.130431 0.000000 
					CHANNELS 3 Xrotation Zrotation Yrotation
					End Site
					{
						OFFSET 0.000000 3.130435 0.000000 
					}
				}
			}
			JOINT lCollar
			{
				OFFSET 3.470700 6.669187 -0.816635 
				CHANNELS 3 Yrotation Zrotation Xrotation
				JOINT lShldr
				{
					OFFSET 3.198488 0.000000 0.000000 
					CHANNELS 3 Zrotation Yrotation Xrotation
					JOINT lForeArm
					{
						OFFSET 10.139888 0.000000 0.000000 
						CHANNELS 3 Yrotation Zrotation Xrotation
						JOINT lHand
						{
							OFFSET 8.370511 0.000000 0.000000 
							CHANNELS 3 Zrotation Yrotation Xrotation
							End Site
							{
								OFFSET 4.083176 0.000000 0.000000 
							}
						}
					}
				}
			}
			JOINT rCollar
			{
				OFFSET -3.470700 6.669187 -0.816635 
				CHANNELS 3 Yrotation Zrotation Xrotation
				JOINT rShldr
				{
					OFFSET -3.198488 0.000000 0.000000 
					CHANNELS 3 Zrotation Yrotation Xrotation
					JOINT rForeArm
					{
						OFFSET -10.139888 0.000000 0.000000 
						CHANNELS 3 Yrotation Zrotation Xrotation
						JOINT rHand
						{
							OFFSET -8.370511 0.000000 0.000000 
							CHANNELS 3 Zrotation Yrotation Xrotation
							End Site
							{
								OFFSET -4.083176 0.000000 0.000000 
							}
						}
					}
				}
			}
		}
	}
	JOINT lThigh
	{
		OFFSET 5.308129 -1.633274 1.361059 
		CHANNELS 3 Xrotation Zrotation Yrotation
		JOINT lShin
		{
			OFFSET -2.041588 -20.007561 0.000000 
			CHANNELS 3 Xrotation Zrotation Yrotation
			JOINT lFoot
			{
				OFFSET 0.000000 -19.190928 -1.224953 
				CHANNELS 3 Xrotation Yrotation Zrotation
				End Site
				{
					OFFSET 0.000000 -2.449906 4.627600 
				}
			}
		}
	}
	JOINT rThigh
	{
		OFFSET -5.308129 -1.633274 1.361059 
		CHANNELS 3 Xrotation Zrotation Yrotation
		JOINT rShin
		{
			OFFSET 2.041588 -20.007561 0.000000 
			CHANNELS 3 Xrotation Zrotation Yrotation
			JOINT rFoot
			{
				OFFSET 0.000000 -19.190928 -1.224953 
				CHANNELS 3 Xrotation Yrotation Zrotation
				End Site
				{
					OFFSET 0.000000 -2.449906 4.627600 
				}
			}
		}
	}
}
MOTION
Frames: 18
Frame Time: 0.016667
15.626471 44.337402 23.356623 10.566400 3.906250 -58.662102 -35.766701 -2.553450 2.480390 39.335899 0.302734 -0.019531 30.450001 -8.625640 11.878700 5.039060 4.541020 6.612100 2.000000 -2.000000 0.000000 -87.019203 -20.954599 -167.065994 55.111301 1.132700 0.145084 -1.229220 3.225050 130.005997 -2.000000 2.000000 0.000000 76.731201 7.396470 -153.147995 -120.815002 -1.289830 0.135047 -178.662994 -176.716003 5.331230 -15.432627 -0.484263 -5.893409 11.777474 3.221500 2.588763 -3.972773 12.429145 5.757446 -22.854601 1.048235 25.576170 19.896215 -4.239414 -3.464373 6.384273 -8.500691 -0.140517 
15.767457 44.362228 23.302813 10.615200 4.052730 -59.852798 -35.866001 -2.193510 2.605780 39.287102 0.576172 0.127051 30.914101 -8.537650 11.684500 5.224610 4.638670 6.465630 2.000000 -2.000000 0.000000 -86.188698 -20.720501 -168.350006 55.657902 1.132120 0.154830 -1.229220 3.225050 130.796997 -2.000000 2.000000 0.000000 77.064400 8.482680 -151.134003 -120.560997 -1.289830 0.135047 -178.653000 -176.707001 6.141200 -15.687198 -0.470493 -5.747689 12.026043 3.278612 2.610497 -4.325189 13.705371 6.105307 -22.524872 0.892901 25.377625 20.324390 -4.301940 -3.513063 6.369604 -9.080738 -0.100621 
15.894174 44.373566 23.237091 10.800800 4.111330 -60.995399 -35.944500 -1.805040 2.835280 39.238300 0.683594 0.332148 31.247700 -8.492910 11.314700 5.341800 4.628910 6.270320 2.000000 -2.000000 0.000000 -85.265602 -20.854601 -169.656998 55.140598 1.132700 0.145084 -1.229220 3.225050 132.184006 -2.000000 2.000000 0.000000 77.355499 9.645650 -149.190002 -119.594002 -1.289830 0.135047 -178.653000 -176.707001 5.897050 -15.985372 -0.248924 -5.556967 12.381876 3.317182 2.659086 -4.544911 14.908493 6.455056 -22.061270 0.792399 24.947586 20.428743 -4.281281 -3.518827 6.534039 -9.653149 -0.085038 
16.020554 44.384777 23.171373 10.996100 4.169920 -62.138000 -36.013699 -1.420000 3.055720 39.189499 0.781250 0.537241 31.571800 -8.456320 10.933800 5.468750 4.619140 6.075010 2.000000 -2.000000 0.000000 -84.343002 -20.978901 -170.975998 54.632801 1.132700 0.145084 -1.239000 3.215270 133.570007 -2.000000 2.000000 0.000000 77.705399 10.791100 -147.235992 -118.637001 -1.279500 0.144213 -178.653000 -176.707001 5.652910 -16.241587 -0.029174 -5.380045 12.806774 3.359355 2.698351 -4.827026 16.099163 6.773158 -21.755426 0.819556 24.522593 20.887520 -4.340136 -3.567164 6.570214 -10.224470 -0.019040 
16.109976 44.384777 23.043083 11.367200 3.964840 -63.232399 -36.025299 -1.153850 3.320760 39.101601 0.546875 0.732515 31.818899 -8.128880 10.655300 5.556640 4.687500 5.909000 2.000000 -2.000000 0.000000 96.968597 -158.431000 7.585520 53.021500 1.132700 0.145084 -1.239000 3.215270 134.809998 -2.000000 2.000000 0.000000 78.572098 11.661100 -145.169998 -117.181999 -1.279500 0.144213 -178.653000 -176.707001 5.701740 -16.765867 0.470632 -5.072674 13.999349 3.597143 2.770918 -5.389076 16.774105 6.930022 -21.177658 1.090312 24.078804 21.014280 -4.312357 -3.601377 6.997474 -10.626428 0.046190 
16.199396 44.384777 22.914797 11.738300 3.779300 -64.316399 -36.036499 -0.902601 3.602020 39.003899 0.312500 0.927788 32.046101 -7.793170 10.389200 5.654300 4.736330 5.742990 2.000000 -2.000000 0.000000 98.298203 -157.871002 6.128450 51.410099 1.122950 0.144507 -1.239000 3.215270 136.050003 -2.000000 2.000000 0.000000 79.478203 12.513100 -143.072998 -115.755997 -1.279500 0.144213 -178.653000 -176.707001 5.760340 -17.246946 0.968446 -4.792114 15.093454 3.789931 2.873171 -5.905537 17.453308 7.101017 -20.689976 1.388680 23.625051 21.293856 -4.320253 -3.651527 7.333415 -10.966096 0.164455 
16.285671 44.379745 22.771450 11.943400 3.867190 -65.322304 -36.028702 -0.595318 3.810040 38.955101 0.419922 1.093820 32.009300 -7.544760 10.179400 5.634770 4.814450 5.596520 2.000000 -2.000000 0.000000 99.227501 -156.837997 4.642910 48.773399 1.122950 0.144507 -1.248780 3.215270 137.904999 -2.000000 2.000000 0.000000 80.107903 13.179700 -141.313004 -113.969002 -1.269750 0.143635 -178.662994 -176.716003 6.991380 -17.674702 1.322392 -4.388406 15.734195 3.856125 2.946224 -6.453786 17.878824 7.339640 -20.420652 1.487897 23.520689 21.622873 -4.322919 -3.671440 7.648882 -11.457446 0.217469 
16.372396 44.374710 22.627996 12.148400 3.955080 -66.328102 -36.011101 -0.288050 4.018150 38.906300 0.527344 1.259760 31.952600 -7.288100 9.980620 5.615240 4.882810 5.459820 2.000000 -2.000000 0.000000 100.214996 -155.826004 3.137940 46.137001 1.113780 0.134185 -1.248780 3.215270 139.770996 -2.000000 2.000000 0.000000 80.776299 13.847700 -139.537003 -112.171997 -1.269750 0.143635 1.346660 -3.303080 -171.779007 -18.067831 1.659871 -3.988009 16.331032 3.934607 3.011768 -6.949390 18.248922 7.602556 -20.180450 1.586421 23.413960 22.069162 -4.345074 -3.733013 7.901680 -11.976998 0.318096 
16.470581 44.360714 22.461060 11.914100 4.287110 -67.040298 -35.900501 -0.386511 4.200900 38.964802 0.478516 1.298910 31.689301 -7.114870 9.878050 5.537110 4.892580 5.401220 2.000000 -2.000000 0.000000 101.372002 -154.477997 1.517930 42.953400 1.113780 0.134185 -1.258560 3.215260 142.485001 -2.000000 2.000000 0.000000 81.638100 14.561600 -138.063995 -110.325996 -1.269750 0.143635 1.346660 -3.303080 -171.720001 -18.333727 1.586947 -3.312557 16.369612 3.901777 3.026973 -6.885771 18.375237 7.681988 -20.100780 1.279659 23.305716 22.698376 -4.394912 -3.781156 7.997545 -12.180085 0.386562 
16.568764 44.346737 22.293789 11.679700 4.609220 -67.744102 -35.790001 -0.494133 4.386990 39.023399 0.439453 1.328200 31.425800 -6.943070 9.783970 5.468750 4.912110 5.342630 2.000000 -2.000000 0.000000 102.585999 -153.181000 -0.137090 39.770000 1.104610 0.123862 -1.268340 3.215250 145.209000 -2.000000 2.000000 0.000000 82.529701 15.257000 -136.569000 -108.480003 -1.259430 0.152801 1.346660 -3.303080 -171.662003 -18.543579 1.535078 -2.691328 16.336739 3.835468 3.067125 -6.832249 18.478649 7.834681 -20.070122 1.016096 23.186958 23.481182 -4.478850 -3.855417 8.020150 -12.395169 0.508136 
16.668297 44.330868 22.095400 11.552700 5.000000 -68.251099 -35.663399 -0.706818 4.487350 39.121101 0.341797 1.289060 31.102501 -6.842170 9.770540 5.400390 4.902340 5.342630 2.000000 -2.000000 0.000000 103.617996 -151.604004 -1.890900 36.264400 1.105190 0.114116 -1.278130 3.225010 147.845001 -2.000000 2.000000 0.000000 83.364098 15.911400 -135.350006 -106.712997 -1.259430 0.152801 1.346660 -3.303080 -171.378006 -18.874519 1.549446 -2.176734 16.224340 3.759879 3.078080 -6.621393 18.461601 7.894481 -20.133406 0.816424 22.895025 23.990128 -4.487913 -3.945124 8.631397 -12.761809 0.664559 
16.767828 44.314869 21.896898 11.435500 5.390630 -68.749100 -35.547100 -0.932068 4.582130 39.228500 0.253906 1.250000 30.789200 -6.750930 9.754490 5.332030 4.902340 5.362160 2.000000 -2.000000 0.000000 104.737999 -150.039001 -3.703970 32.768299 1.095440 0.113539 -1.278130 3.225010 150.472000 -2.000000 2.000000 0.000000 84.237503 16.567200 -134.121002 -104.934998 -1.259430 0.152801 1.346660 -3.303080 -171.095001 -19.235266 1.570327 -1.671065 16.143101 3.688046 3.138142 -6.448144 18.443270 7.979529 -20.187578 0.624345 22.545109 24.508907 -4.486184 -3.993758 9.227613 -13.120452 0.826063 
16.862417 44.280975 21.641329 11.709000 5.722660 -69.238297 -35.477001 -0.977899 4.682480 39.199200 0.175781 1.279300 30.424299 -6.431790 9.732870 5.214840 4.941410 5.323110 2.000000 -2.000000 0.000000 105.382004 -148.496994 -5.004340 29.614300 1.096020 0.103794 -1.287920 3.234770 152.600006 -2.000000 2.000000 0.000000 84.964401 16.963800 -133.423004 -103.646004 -1.249680 0.152223 1.346660 -3.303080 -170.910004 -20.013840 1.999702 -1.342724 16.666521 3.731446 3.198580 -6.328643 18.557037 7.976974 -20.181688 0.883855 22.394464 24.210079 -4.429132 -3.963308 10.608064 -13.308053 1.128012 
16.956892 44.247093 21.385534 11.962900 6.064450 -69.725502 -35.416302 -1.020320 4.792130 39.169899 0.097656 1.298840 30.040001 -6.123750 9.719500 5.087890 4.990230 5.303580 2.000000 -2.000000 0.000000 106.084999 -146.975998 -6.354530 26.469999 1.086850 0.093471 -1.297700 3.234760 154.718994 -2.000000 2.000000 0.000000 85.691704 17.350700 -132.727005 -102.347000 -1.249680 0.152223 1.346660 -3.303080 -170.714005 -20.685621 2.443447 -1.017961 17.117500 3.739967 3.265150 -6.254309 18.635143 8.028608 -20.081257 1.079540 22.261362 23.826071 -4.352705 -3.947977 12.026384 -13.503254 1.432358 
17.029465 44.192051 21.121092 12.021500 6.513670 -70.038002 -35.347198 -1.094700 4.872050 39.169899 0.175781 1.298860 29.829300 -5.672270 9.738350 5.029300 5.136720 5.284080 2.000000 -2.000000 0.000000 106.330002 -146.339005 -5.636620 25.337200 1.086850 0.093471 -1.287910 3.225000 154.054993 -2.000000 2.000000 0.000000 86.231003 17.291401 -132.813995 -102.014999 -1.249680 0.152223 1.346670 -3.312840 -170.108994 -21.395575 2.588859 -1.008596 17.470110 3.737231 3.321155 -6.336615 18.811617 8.123326 -19.996284 1.077780 21.733194 23.227316 -4.305631 -3.910459 11.137028 -13.410480 1.208155 
17.102034 44.136993 20.856533 12.070300 6.962890 -70.341797 -35.278400 -1.181660 4.946230 39.150398 0.244141 1.289100 29.628300 -5.214010 9.777860 4.951170 5.283200 5.254810 2.000000 -2.000000 0.000000 106.544998 -145.701996 -4.899670 24.204399 1.086850 0.093471 -1.287910 3.225000 153.382004 -2.000000 2.000000 0.000000 86.780197 17.232401 -132.912003 -101.682999 -1.249680 0.152223 1.346670 -3.312840 -169.513000 -22.047609 2.745426 -1.034855 17.650429 3.698959 3.383503 -6.335998 18.999208 8.304112 -19.760992 0.974901 21.173136 22.230190 -4.197916 -3.823883 10.460258 -13.317875 0.977825 
17.135511 44.102356 20.580181 12.226600 7.343750 -70.467499 -35.191399 -1.225080 4.941620 39.218800 0.361328 1.250060 29.488600 -4.971100 9.804130 4.892580 5.361330 5.235290 2.000000 -2.000000 0.000000 105.718002 -145.350998 -5.288320 24.106701 1.086850 0.093471 -1.287910 3.225000 153.498993 -2.000000 2.000000 0.000000 86.786102 16.822201 -133.720001 -101.830002 -1.249680 0.152223 1.336890 -3.312850 -168.927002 -22.692982 3.006555 -1.155075 17.981548 3.704924 3.460371 -6.465874 19.020840 8.363246 -19.429775 1.084818 20.098703 20.789057 -4.107801 -3.674959 8.764539 -14.460414 0.528825 
17.168877 44.067715 20.303944 12.392600 7.724610 -70.584602 -35.104401 -1.268500 4.937010 39.277302 0.468750 1.230550 29.359100 -4.726760 9.820760 4.833980 5.439450 5.215770 2.000000 -2.000000 0.000000 104.889999 -145.001007 -5.676690 24.018801 1.086850 0.093471 -1.287910 3.225000 153.615997 -2.000000 2.000000 0.000000 86.801697 16.412300 -134.505005 -101.975998 -1.249680 0.152223 1.346670 -3.312840 -168.341003 -23.271898 3.298291 -1.256997 18.157061 3.679984 3.484982 -6.525767 19.066431 8.491163 -18.909653 1.066638 19.066544 18.893087 -3.887757 -3.501173 7.269475 -15.631311 -0.042453 
